<svg xmlns="http://www.w3.org/2000/svg" xmlns:xlink="http://www.w3.org/1999/xlink" width="500" zoomAndPan="magnify" viewBox="0 0 375 374.999991" height="500" preserveAspectRatio="xMidYMid meet" version="1.0"><defs><g/><clipPath id="0b1a8a9e2e"><path d="M 175 150 L 200 150 L 200 223.886719 L 175 223.886719 Z M 175 150 " clip-rule="nonzero"/></clipPath><clipPath id="4237ca987b"><path d="M 244 153 L 273.34375 153 L 273.34375 209 L 244 209 Z M 244 153 " clip-rule="nonzero"/></clipPath><clipPath id="49a5acffe6"><path d="M 121 133.136719 L 149 133.136719 L 149 219 L 121 219 Z M 121 133.136719 " clip-rule="nonzero"/></clipPath><clipPath id="713043fd55"><path d="M 101.59375 158 L 125 158 L 125 195 L 101.59375 195 Z M 101.59375 158 " clip-rule="nonzero"/></clipPath><clipPath id="15d4b6a5ba"><rect x="0" width="98" y="0" height="19"/></clipPath></defs><g clip-path="url(#0b1a8a9e2e)"><path fill="#393637" d="M 195.289062 174.699219 L 188.15625 174.707031 L 186.640625 150.132812 L 175.429688 150.050781 L 176.59375 223.886719 L 199.59375 223.480469 L 195.289062 174.699219 " fill-opacity="1" fill-rule="nonzero"/></g><path fill="#393637" d="M 202.199219 205.5625 L 223.402344 205.3125 L 218.09375 174.675781 L 211.070312 174.683594 L 207.246094 148.6875 L 202.769531 148.652344 L 206.121094 174.6875 L 199.042969 174.695312 L 202.199219 205.5625 " fill-opacity="1" fill-rule="nonzero"/><path fill="#393637" d="M 246.875 199.269531 L 240.546875 174.648438 L 233.632812 174.65625 L 225.996094 141.625 L 221.710938 141.582031 L 228.757812 174.664062 L 221.789062 174.667969 L 226.429688 199.464844 L 246.875 199.269531 " fill-opacity="1" fill-rule="nonzero"/><g clip-path="url(#4237ca987b)"><path fill="#393637" d="M 251.050781 174.636719 L 244.1875 174.644531 L 253.3125 208.371094 L 273.316406 208.113281 L 271.933594 204.015625 L 254.914062 153.523438 L 244.78125 153.460938 L 251.050781 174.636719 " fill-opacity="1" fill-rule="nonzero"/></g><path fill="#393637" d="M 159.773438 174.742188 L 152.46875 174.75 L 149.886719 211.015625 L 172.058594 210.722656 L 171.953125 141.792969 L 161.230469 141.6875 L 159.773438 174.742188 " fill-opacity="1" fill-rule="nonzero"/><g clip-path="url(#49a5acffe6)"><path fill="#393637" d="M 141.5625 133.140625 L 136.050781 174.769531 L 128.519531 174.777344 L 121.445312 218.875 L 144.847656 218.503906 L 148.597656 174.753906 L 141.238281 174.765625 L 145.9375 133.195312 L 141.5625 133.140625 " fill-opacity="1" fill-rule="nonzero"/></g><g clip-path="url(#713043fd55)"><path fill="#393637" d="M 110.453125 158.164062 L 101.601562 194.613281 L 121.136719 194.460938 L 124.582031 174.785156 L 117.214844 174.792969 L 120.574219 158.207031 L 110.453125 158.164062 " fill-opacity="1" fill-rule="nonzero"/></g><g fill="#3d3b3a" fill-opacity="1"><g transform="translate(125.836894, 249.886815)"><g><path d="M 20.734375 0 L 20.703125 -13.046875 L 14.234375 -2.25 L 12.59375 -2.25 L 6.125 -12.875 L 6.125 0 L 2.640625 0 L 2.640625 -19.6875 L 5.65625 -19.6875 L 13.46875 -6.640625 L 21.15625 -19.6875 L 24.15625 -19.6875 L 24.1875 0 Z M 20.734375 0 "/></g></g></g><g fill="#3d3b3a" fill-opacity="1"><g transform="translate(163.948658, 249.886815)"><g><path d="M 17.40625 -3.0625 L 17.40625 0 L 2.640625 0 L 2.640625 -19.6875 L 17.015625 -19.6875 L 17.015625 -16.625 L 6.296875 -16.625 L 6.296875 -11.5 L 15.8125 -11.5 L 15.8125 -8.5 L 6.296875 -8.5 L 6.296875 -3.0625 Z M 17.40625 -3.0625 "/></g></g></g><g fill="#3d3b3a" fill-opacity="1"><g transform="translate(194.044821, 249.886815)"><g><path d="M 20.140625 -19.6875 L 20.140625 0 L 17.125 0 L 6.265625 -13.328125 L 6.265625 0 L 2.640625 0 L 2.640625 -19.6875 L 5.65625 -19.6875 L 16.515625 -6.359375 L 16.515625 -19.6875 Z M 20.140625 -19.6875 "/></g></g></g><g fill="#3d3b3a" fill-opacity="1"><g transform="translate(228.078472, 249.886815)"><g><path d="M 15.40625 -4.5625 L 5.5625 -4.5625 L 3.625 0 L -0.140625 0 L 8.71875 -19.6875 L 12.3125 -19.6875 L 21.203125 0 L 17.375 0 Z M 14.203125 -7.421875 L 10.484375 -16.03125 L 6.8125 -7.421875 Z M 14.203125 -7.421875 "/></g></g></g><g transform="matrix(1, 0, 0, 1, 141, 257)"><g clip-path="url(#15d4b6a5ba)"><g fill="#3d3b3a" fill-opacity="1"><g transform="translate(1.508399, 14.461229)"><g><path d="M 4.484375 0.109375 C 3.710938 0.109375 2.972656 -0.00390625 2.265625 -0.234375 C 1.554688 -0.472656 1 -0.78125 0.59375 -1.15625 L 1.125 -2.296875 C 1.519531 -1.941406 2.019531 -1.65625 2.625 -1.4375 C 3.226562 -1.21875 3.847656 -1.109375 4.484375 -1.109375 C 5.316406 -1.109375 5.941406 -1.25 6.359375 -1.53125 C 6.773438 -1.820312 6.984375 -2.207031 6.984375 -2.6875 C 6.984375 -3.03125 6.867188 -3.3125 6.640625 -3.53125 C 6.421875 -3.75 6.144531 -3.914062 5.8125 -4.03125 C 5.476562 -4.144531 5.003906 -4.273438 4.390625 -4.421875 C 3.628906 -4.609375 3.015625 -4.789062 2.546875 -4.96875 C 2.078125 -5.15625 1.675781 -5.4375 1.34375 -5.8125 C 1.007812 -6.195312 0.84375 -6.710938 0.84375 -7.359375 C 0.84375 -7.898438 0.984375 -8.390625 1.265625 -8.828125 C 1.554688 -9.265625 1.988281 -9.613281 2.5625 -9.875 C 3.144531 -10.132812 3.867188 -10.265625 4.734375 -10.265625 C 5.328125 -10.265625 5.910156 -10.1875 6.484375 -10.03125 C 7.066406 -9.875 7.566406 -9.648438 7.984375 -9.359375 L 7.515625 -8.203125 C 7.085938 -8.472656 6.628906 -8.675781 6.140625 -8.8125 C 5.660156 -8.957031 5.191406 -9.03125 4.734375 -9.03125 C 3.910156 -9.03125 3.289062 -8.878906 2.875 -8.578125 C 2.46875 -8.285156 2.265625 -7.898438 2.265625 -7.421875 C 2.265625 -7.078125 2.378906 -6.796875 2.609375 -6.578125 C 2.835938 -6.359375 3.125 -6.1875 3.46875 -6.0625 C 3.8125 -5.945312 4.28125 -5.820312 4.875 -5.6875 C 5.632812 -5.5 6.242188 -5.3125 6.703125 -5.125 C 7.171875 -4.945312 7.570312 -4.664062 7.90625 -4.28125 C 8.238281 -3.90625 8.40625 -3.398438 8.40625 -2.765625 C 8.40625 -2.234375 8.257812 -1.75 7.96875 -1.3125 C 7.6875 -0.875 7.25 -0.523438 6.65625 -0.265625 C 6.0625 -0.015625 5.335938 0.109375 4.484375 0.109375 Z M 4.484375 0.109375 "/></g></g></g><g fill="#3d3b3a" fill-opacity="1"><g transform="translate(16.318439, 14.461229)"><g><path d="M 6.0625 0.109375 C 5.039062 0.109375 4.125 -0.113281 3.3125 -0.5625 C 2.5 -1.007812 1.859375 -1.625 1.390625 -2.40625 C 0.929688 -3.195312 0.703125 -4.085938 0.703125 -5.078125 C 0.703125 -6.054688 0.929688 -6.941406 1.390625 -7.734375 C 1.859375 -8.523438 2.5 -9.144531 3.3125 -9.59375 C 4.132812 -10.039062 5.054688 -10.265625 6.078125 -10.265625 C 6.867188 -10.265625 7.59375 -10.128906 8.25 -9.859375 C 8.90625 -9.597656 9.46875 -9.207031 9.9375 -8.6875 L 8.984375 -7.765625 C 8.222656 -8.566406 7.273438 -8.96875 6.140625 -8.96875 C 5.378906 -8.96875 4.691406 -8.796875 4.078125 -8.453125 C 3.472656 -8.117188 3 -7.65625 2.65625 -7.0625 C 2.3125 -6.46875 2.140625 -5.804688 2.140625 -5.078125 C 2.140625 -4.335938 2.3125 -3.671875 2.65625 -3.078125 C 3 -2.484375 3.472656 -2.015625 4.078125 -1.671875 C 4.691406 -1.335938 5.378906 -1.171875 6.140625 -1.171875 C 7.265625 -1.171875 8.210938 -1.578125 8.984375 -2.390625 L 9.9375 -1.484375 C 9.46875 -0.960938 8.898438 -0.566406 8.234375 -0.296875 C 7.578125 -0.0234375 6.851562 0.109375 6.0625 0.109375 Z M 6.0625 0.109375 "/></g></g></g><g fill="#3d3b3a" fill-opacity="1"><g transform="translate(32.607475, 14.461229)"><g><path d="M 6.109375 0.109375 C 5.078125 0.109375 4.148438 -0.113281 3.328125 -0.5625 C 2.515625 -1.007812 1.875 -1.628906 1.40625 -2.421875 C 0.9375 -3.210938 0.703125 -4.097656 0.703125 -5.078125 C 0.703125 -6.054688 0.9375 -6.941406 1.40625 -7.734375 C 1.875 -8.523438 2.515625 -9.144531 3.328125 -9.59375 C 4.148438 -10.039062 5.078125 -10.265625 6.109375 -10.265625 C 7.117188 -10.265625 8.035156 -10.039062 8.859375 -9.59375 C 9.679688 -9.144531 10.320312 -8.523438 10.78125 -7.734375 C 11.25 -6.941406 11.484375 -6.054688 11.484375 -5.078125 C 11.484375 -4.085938 11.25 -3.195312 10.78125 -2.40625 C 10.320312 -1.625 9.679688 -1.007812 8.859375 -0.5625 C 8.035156 -0.113281 7.117188 0.109375 6.109375 0.109375 Z M 6.109375 -1.171875 C 6.847656 -1.171875 7.515625 -1.335938 8.109375 -1.671875 C 8.703125 -2.015625 9.171875 -2.484375 9.515625 -3.078125 C 9.859375 -3.671875 10.03125 -4.335938 10.03125 -5.078125 C 10.03125 -5.804688 9.859375 -6.46875 9.515625 -7.0625 C 9.171875 -7.65625 8.703125 -8.117188 8.109375 -8.453125 C 7.515625 -8.796875 6.847656 -8.96875 6.109375 -8.96875 C 5.359375 -8.96875 4.679688 -8.796875 4.078125 -8.453125 C 3.472656 -8.117188 3 -7.65625 2.65625 -7.0625 C 2.3125 -6.46875 2.140625 -5.804688 2.140625 -5.078125 C 2.140625 -4.335938 2.3125 -3.671875 2.65625 -3.078125 C 3 -2.484375 3.472656 -2.015625 4.078125 -1.671875 C 4.679688 -1.335938 5.359375 -1.171875 6.109375 -1.171875 Z M 6.109375 -1.171875 "/></g></g></g><g fill="#3d3b3a" fill-opacity="1"><g transform="translate(50.593031, 14.461229)"><g><path d="M 8.3125 0 L 6.125 -3.125 C 5.851562 -3.101562 5.640625 -3.09375 5.484375 -3.09375 L 2.96875 -3.09375 L 2.96875 0 L 1.515625 0 L 1.515625 -10.15625 L 5.484375 -10.15625 C 6.796875 -10.15625 7.828125 -9.835938 8.578125 -9.203125 C 9.335938 -8.578125 9.71875 -7.710938 9.71875 -6.609375 C 9.71875 -5.828125 9.523438 -5.160156 9.140625 -4.609375 C 8.753906 -4.054688 8.203125 -3.65625 7.484375 -3.40625 L 9.890625 0 Z M 5.4375 -4.328125 C 6.351562 -4.328125 7.050781 -4.523438 7.53125 -4.921875 C 8.019531 -5.316406 8.265625 -5.878906 8.265625 -6.609375 C 8.265625 -7.347656 8.019531 -7.910156 7.53125 -8.296875 C 7.050781 -8.691406 6.351562 -8.890625 5.4375 -8.890625 L 2.96875 -8.890625 L 2.96875 -4.328125 Z M 5.4375 -4.328125 "/></g></g></g><g fill="#3d3b3a" fill-opacity="1"><g transform="translate(66.940069, 14.461229)"><g><path d="M 8.890625 -1.265625 L 8.890625 0 L 1.515625 0 L 1.515625 -10.15625 L 8.6875 -10.15625 L 8.6875 -8.890625 L 2.96875 -8.890625 L 2.96875 -5.765625 L 8.0625 -5.765625 L 8.0625 -4.53125 L 2.96875 -4.53125 L 2.96875 -1.265625 Z M 8.890625 -1.265625 "/></g></g></g><g fill="#3d3b3a" fill-opacity="1"><g transform="translate(82.460606, 14.461229)"><g><path d="M 4.484375 0.109375 C 3.710938 0.109375 2.972656 -0.00390625 2.265625 -0.234375 C 1.554688 -0.472656 1 -0.78125 0.59375 -1.15625 L 1.125 -2.296875 C 1.519531 -1.941406 2.019531 -1.65625 2.625 -1.4375 C 3.226562 -1.21875 3.847656 -1.109375 4.484375 -1.109375 C 5.316406 -1.109375 5.941406 -1.25 6.359375 -1.53125 C 6.773438 -1.820312 6.984375 -2.207031 6.984375 -2.6875 C 6.984375 -3.03125 6.867188 -3.3125 6.640625 -3.53125 C 6.421875 -3.75 6.144531 -3.914062 5.8125 -4.03125 C 5.476562 -4.144531 5.003906 -4.273438 4.390625 -4.421875 C 3.628906 -4.609375 3.015625 -4.789062 2.546875 -4.96875 C 2.078125 -5.15625 1.675781 -5.4375 1.34375 -5.8125 C 1.007812 -6.195312 0.84375 -6.710938 0.84375 -7.359375 C 0.84375 -7.898438 0.984375 -8.390625 1.265625 -8.828125 C 1.554688 -9.265625 1.988281 -9.613281 2.5625 -9.875 C 3.144531 -10.132812 3.867188 -10.265625 4.734375 -10.265625 C 5.328125 -10.265625 5.910156 -10.1875 6.484375 -10.03125 C 7.066406 -9.875 7.566406 -9.648438 7.984375 -9.359375 L 7.515625 -8.203125 C 7.085938 -8.472656 6.628906 -8.675781 6.140625 -8.8125 C 5.660156 -8.957031 5.191406 -9.03125 4.734375 -9.03125 C 3.910156 -9.03125 3.289062 -8.878906 2.875 -8.578125 C 2.46875 -8.285156 2.265625 -7.898438 2.265625 -7.421875 C 2.265625 -7.078125 2.378906 -6.796875 2.609375 -6.578125 C 2.835938 -6.359375 3.125 -6.1875 3.46875 -6.0625 C 3.8125 -5.945312 4.28125 -5.820312 4.875 -5.6875 C 5.632812 -5.5 6.242188 -5.3125 6.703125 -5.125 C 7.171875 -4.945312 7.570312 -4.664062 7.90625 -4.28125 C 8.238281 -3.90625 8.40625 -3.398438 8.40625 -2.765625 C 8.40625 -2.234375 8.257812 -1.75 7.96875 -1.3125 C 7.6875 -0.875 7.25 -0.523438 6.65625 -0.265625 C 6.0625 -0.015625 5.335938 0.109375 4.484375 0.109375 Z M 4.484375 0.109375 "/></g></g></g></g></g></svg>