<svg xmlns="http://www.w3.org/2000/svg" xmlns:xlink="http://www.w3.org/1999/xlink" width="500" zoomAndPan="magnify" viewBox="0 0 375 374.999991" height="500" preserveAspectRatio="xMidYMid meet" version="1.0"><defs><g/><clipPath id="0030255d78"><path d="M 175 150 L 200 150 L 200 223.886719 L 175 223.886719 Z M 175 150 " clip-rule="nonzero"/></clipPath><clipPath id="dc0317b0b5"><path d="M 244 153 L 273.34375 153 L 273.34375 209 L 244 209 Z M 244 153 " clip-rule="nonzero"/></clipPath><clipPath id="78ea5515f9"><path d="M 121 133.136719 L 149 133.136719 L 149 219 L 121 219 Z M 121 133.136719 " clip-rule="nonzero"/></clipPath><clipPath id="fdccf5d476"><path d="M 101.59375 158 L 125 158 L 125 195 L 101.59375 195 Z M 101.59375 158 " clip-rule="nonzero"/></clipPath></defs><g clip-path="url(#0030255d78)"><path fill="#393637" d="M 195.289062 174.699219 L 188.15625 174.707031 L 186.640625 150.132812 L 175.429688 150.050781 L 176.59375 223.886719 L 199.59375 223.480469 L 195.289062 174.699219 " fill-opacity="1" fill-rule="nonzero"/></g><path fill="#393637" d="M 202.199219 205.5625 L 223.402344 205.3125 L 218.09375 174.675781 L 211.070312 174.683594 L 207.246094 148.6875 L 202.769531 148.652344 L 206.121094 174.6875 L 199.042969 174.695312 L 202.199219 205.5625 " fill-opacity="1" fill-rule="nonzero"/><path fill="#393637" d="M 246.875 199.269531 L 240.546875 174.648438 L 233.632812 174.65625 L 225.996094 141.625 L 221.710938 141.582031 L 228.757812 174.664062 L 221.789062 174.667969 L 226.429688 199.464844 L 246.875 199.269531 " fill-opacity="1" fill-rule="nonzero"/><g clip-path="url(#dc0317b0b5)"><path fill="#393637" d="M 251.050781 174.636719 L 244.1875 174.644531 L 253.3125 208.371094 L 273.316406 208.113281 L 271.933594 204.015625 L 254.914062 153.523438 L 244.78125 153.460938 L 251.050781 174.636719 " fill-opacity="1" fill-rule="nonzero"/></g><path fill="#393637" d="M 159.773438 174.742188 L 152.46875 174.75 L 149.886719 211.015625 L 172.058594 210.722656 L 171.953125 141.792969 L 161.230469 141.6875 L 159.773438 174.742188 " fill-opacity="1" fill-rule="nonzero"/><g clip-path="url(#78ea5515f9)"><path fill="#393637" d="M 141.5625 133.140625 L 136.050781 174.769531 L 128.519531 174.777344 L 121.445312 218.875 L 144.847656 218.503906 L 148.597656 174.753906 L 141.238281 174.765625 L 145.9375 133.195312 L 141.5625 133.140625 " fill-opacity="1" fill-rule="nonzero"/></g><g clip-path="url(#fdccf5d476)"><path fill="#393637" d="M 110.453125 158.164062 L 101.601562 194.613281 L 121.136719 194.460938 L 124.582031 174.785156 L 117.214844 174.792969 L 120.574219 158.207031 L 110.453125 158.164062 " fill-opacity="1" fill-rule="nonzero"/></g><g fill="#3d3b3a" fill-opacity="1"><g transform="translate(125.836894, 249.886815)"><g><path d="M 20.734375 0 L 20.703125 -13.046875 L 14.234375 -2.25 L 12.59375 -2.25 L 6.125 -12.875 L 6.125 0 L 2.640625 0 L 2.640625 -19.6875 L 5.65625 -19.6875 L 13.46875 -6.640625 L 21.15625 -19.6875 L 24.15625 -19.6875 L 24.1875 0 Z M 20.734375 0 "/></g></g></g><g fill="#3d3b3a" fill-opacity="1"><g transform="translate(163.948658, 249.886815)"><g><path d="M 17.40625 -3.0625 L 17.40625 0 L 2.640625 0 L 2.640625 -19.6875 L 17.015625 -19.6875 L 17.015625 -16.625 L 6.296875 -16.625 L 6.296875 -11.5 L 15.8125 -11.5 L 15.8125 -8.5 L 6.296875 -8.5 L 6.296875 -3.0625 Z M 17.40625 -3.0625 "/></g></g></g><g fill="#3d3b3a" fill-opacity="1"><g transform="translate(194.044821, 249.886815)"><g><path d="M 20.140625 -19.6875 L 20.140625 0 L 17.125 0 L 6.265625 -13.328125 L 6.265625 0 L 2.640625 0 L 2.640625 -19.6875 L 5.65625 -19.6875 L 16.515625 -6.359375 L 16.515625 -19.6875 Z M 20.140625 -19.6875 "/></g></g></g><g fill="#3d3b3a" fill-opacity="1"><g transform="translate(228.078472, 249.886815)"><g><path d="M 15.40625 -4.5625 L 5.5625 -4.5625 L 3.625 0 L -0.140625 0 L 8.71875 -19.6875 L 12.3125 -19.6875 L 21.203125 0 L 17.375 0 Z M 14.203125 -7.421875 L 10.484375 -16.03125 L 6.8125 -7.421875 Z M 14.203125 -7.421875 "/></g></g></g><g fill="#3d3b3a" fill-opacity="1"><g transform="translate(152.301988, 267.911702)"><g><path d="M 3.5 0.09375 C 2.90625 0.09375 2.328125 0 1.765625 -0.1875 C 1.210938 -0.375 0.78125 -0.613281 0.46875 -0.90625 L 0.890625 -1.796875 C 1.191406 -1.523438 1.578125 -1.300781 2.046875 -1.125 C 2.515625 -0.957031 3 -0.875 3.5 -0.875 C 4.15625 -0.875 4.644531 -0.984375 4.96875 -1.203125 C 5.300781 -1.429688 5.46875 -1.726562 5.46875 -2.09375 C 5.46875 -2.363281 5.378906 -2.582031 5.203125 -2.75 C 5.023438 -2.925781 4.804688 -3.0625 4.546875 -3.15625 C 4.285156 -3.25 3.914062 -3.347656 3.4375 -3.453125 C 2.84375 -3.597656 2.359375 -3.742188 1.984375 -3.890625 C 1.617188 -4.035156 1.304688 -4.253906 1.046875 -4.546875 C 0.785156 -4.847656 0.65625 -5.253906 0.65625 -5.765625 C 0.65625 -6.179688 0.765625 -6.5625 0.984375 -6.90625 C 1.210938 -7.25 1.550781 -7.519531 2 -7.71875 C 2.457031 -7.925781 3.023438 -8.03125 3.703125 -8.03125 C 4.171875 -8.03125 4.628906 -7.96875 5.078125 -7.84375 C 5.535156 -7.726562 5.925781 -7.554688 6.25 -7.328125 L 5.875 -6.421875 C 5.539062 -6.628906 5.1875 -6.785156 4.8125 -6.890625 C 4.4375 -7.003906 4.066406 -7.0625 3.703125 -7.0625 C 3.054688 -7.0625 2.570312 -6.941406 2.25 -6.703125 C 1.925781 -6.472656 1.765625 -6.175781 1.765625 -5.8125 C 1.765625 -5.539062 1.851562 -5.316406 2.03125 -5.140625 C 2.21875 -4.972656 2.445312 -4.84375 2.71875 -4.75 C 2.988281 -4.65625 3.351562 -4.554688 3.8125 -4.453125 C 4.40625 -4.304688 4.882812 -4.160156 5.25 -4.015625 C 5.613281 -3.867188 5.925781 -3.648438 6.1875 -3.359375 C 6.445312 -3.066406 6.578125 -2.671875 6.578125 -2.171875 C 6.578125 -1.753906 6.460938 -1.375 6.234375 -1.03125 C 6.015625 -0.6875 5.671875 -0.410156 5.203125 -0.203125 C 4.742188 -0.00390625 4.175781 0.09375 3.5 0.09375 Z M 3.5 0.09375 "/></g></g></g><g fill="#3d3b3a" fill-opacity="1"><g transform="translate(163.888238, 267.911702)"><g><path d="M 4.734375 0.09375 C 3.941406 0.09375 3.226562 -0.0820312 2.59375 -0.4375 C 1.957031 -0.789062 1.457031 -1.273438 1.09375 -1.890625 C 0.726562 -2.503906 0.546875 -3.195312 0.546875 -3.96875 C 0.546875 -4.738281 0.726562 -5.429688 1.09375 -6.046875 C 1.457031 -6.660156 1.957031 -7.144531 2.59375 -7.5 C 3.238281 -7.851562 3.957031 -8.03125 4.75 -8.03125 C 5.375 -8.03125 5.941406 -7.925781 6.453125 -7.71875 C 6.960938 -7.507812 7.398438 -7.203125 7.765625 -6.796875 L 7.03125 -6.078125 C 6.4375 -6.703125 5.691406 -7.015625 4.796875 -7.015625 C 4.203125 -7.015625 3.664062 -6.882812 3.1875 -6.625 C 2.71875 -6.363281 2.347656 -6 2.078125 -5.53125 C 1.804688 -5.0625 1.671875 -4.539062 1.671875 -3.96875 C 1.671875 -3.394531 1.804688 -2.875 2.078125 -2.40625 C 2.347656 -1.945312 2.71875 -1.582031 3.1875 -1.3125 C 3.664062 -1.050781 4.203125 -0.921875 4.796875 -0.921875 C 5.679688 -0.921875 6.425781 -1.238281 7.03125 -1.875 L 7.765625 -1.15625 C 7.398438 -0.75 6.957031 -0.4375 6.4375 -0.21875 C 5.925781 -0.0078125 5.359375 0.09375 4.734375 0.09375 Z M 4.734375 0.09375 "/></g></g></g><g fill="#3d3b3a" fill-opacity="1"><g transform="translate(176.631542, 267.911702)"><g><path d="M 4.78125 0.09375 C 3.976562 0.09375 3.253906 -0.0820312 2.609375 -0.4375 C 1.960938 -0.789062 1.457031 -1.273438 1.09375 -1.890625 C 0.726562 -2.515625 0.546875 -3.207031 0.546875 -3.96875 C 0.546875 -4.726562 0.726562 -5.414062 1.09375 -6.03125 C 1.457031 -6.65625 1.960938 -7.144531 2.609375 -7.5 C 3.253906 -7.851562 3.976562 -8.03125 4.78125 -8.03125 C 5.570312 -8.03125 6.285156 -7.851562 6.921875 -7.5 C 7.566406 -7.144531 8.070312 -6.660156 8.4375 -6.046875 C 8.800781 -5.429688 8.984375 -4.738281 8.984375 -3.96875 C 8.984375 -3.195312 8.800781 -2.503906 8.4375 -1.890625 C 8.070312 -1.273438 7.566406 -0.789062 6.921875 -0.4375 C 6.285156 -0.0820312 5.570312 0.09375 4.78125 0.09375 Z M 4.78125 -0.921875 C 5.363281 -0.921875 5.882812 -1.050781 6.34375 -1.3125 C 6.8125 -1.582031 7.175781 -1.945312 7.4375 -2.40625 C 7.707031 -2.875 7.84375 -3.394531 7.84375 -3.96875 C 7.84375 -4.539062 7.707031 -5.0625 7.4375 -5.53125 C 7.175781 -6 6.8125 -6.363281 6.34375 -6.625 C 5.882812 -6.882812 5.363281 -7.015625 4.78125 -7.015625 C 4.195312 -7.015625 3.664062 -6.882812 3.1875 -6.625 C 2.71875 -6.363281 2.347656 -6 2.078125 -5.53125 C 1.804688 -5.0625 1.671875 -4.539062 1.671875 -3.96875 C 1.671875 -3.394531 1.804688 -2.875 2.078125 -2.40625 C 2.347656 -1.945312 2.71875 -1.582031 3.1875 -1.3125 C 3.664062 -1.050781 4.195312 -0.921875 4.78125 -0.921875 Z M 4.78125 -0.921875 "/></g></g></g><g fill="#3d3b3a" fill-opacity="1"><g transform="translate(190.702076, 267.911702)"><g><path d="M 6.5 0 L 4.78125 -2.4375 C 4.570312 -2.425781 4.40625 -2.421875 4.28125 -2.421875 L 2.328125 -2.421875 L 2.328125 0 L 1.1875 0 L 1.1875 -7.9375 L 4.28125 -7.9375 C 5.3125 -7.9375 6.117188 -7.691406 6.703125 -7.203125 C 7.296875 -6.710938 7.59375 -6.035156 7.59375 -5.171875 C 7.59375 -4.554688 7.441406 -4.03125 7.140625 -3.59375 C 6.835938 -3.164062 6.410156 -2.859375 5.859375 -2.671875 L 7.734375 0 Z M 4.25 -3.375 C 4.96875 -3.375 5.515625 -3.53125 5.890625 -3.84375 C 6.273438 -4.15625 6.46875 -4.597656 6.46875 -5.171875 C 6.46875 -5.742188 6.273438 -6.179688 5.890625 -6.484375 C 5.515625 -6.796875 4.96875 -6.953125 4.25 -6.953125 L 2.328125 -6.953125 L 2.328125 -3.375 Z M 4.25 -3.375 "/></g></g></g><g fill="#3d3b3a" fill-opacity="1"><g transform="translate(203.490756, 267.911702)"><g><path d="M 6.953125 -0.984375 L 6.953125 0 L 1.1875 0 L 1.1875 -7.9375 L 6.796875 -7.9375 L 6.796875 -6.953125 L 2.328125 -6.953125 L 2.328125 -4.515625 L 6.3125 -4.515625 L 6.3125 -3.546875 L 2.328125 -3.546875 L 2.328125 -0.984375 Z M 6.953125 -0.984375 "/></g></g></g><g fill="#3d3b3a" fill-opacity="1"><g transform="translate(215.632845, 267.911702)"><g><path d="M 3.5 0.09375 C 2.90625 0.09375 2.328125 0 1.765625 -0.1875 C 1.210938 -0.375 0.78125 -0.613281 0.46875 -0.90625 L 0.890625 -1.796875 C 1.191406 -1.523438 1.578125 -1.300781 2.046875 -1.125 C 2.515625 -0.957031 3 -0.875 3.5 -0.875 C 4.15625 -0.875 4.644531 -0.984375 4.96875 -1.203125 C 5.300781 -1.429688 5.46875 -1.726562 5.46875 -2.09375 C 5.46875 -2.363281 5.378906 -2.582031 5.203125 -2.75 C 5.023438 -2.925781 4.804688 -3.0625 4.546875 -3.15625 C 4.285156 -3.25 3.914062 -3.347656 3.4375 -3.453125 C 2.84375 -3.597656 2.359375 -3.742188 1.984375 -3.890625 C 1.617188 -4.035156 1.304688 -4.253906 1.046875 -4.546875 C 0.785156 -4.847656 0.65625 -5.253906 0.65625 -5.765625 C 0.65625 -6.179688 0.765625 -6.5625 0.984375 -6.90625 C 1.210938 -7.25 1.550781 -7.519531 2 -7.71875 C 2.457031 -7.925781 3.023438 -8.03125 3.703125 -8.03125 C 4.171875 -8.03125 4.628906 -7.96875 5.078125 -7.84375 C 5.535156 -7.726562 5.925781 -7.554688 6.25 -7.328125 L 5.875 -6.421875 C 5.539062 -6.628906 5.1875 -6.785156 4.8125 -6.890625 C 4.4375 -7.003906 4.066406 -7.0625 3.703125 -7.0625 C 3.054688 -7.0625 2.570312 -6.941406 2.25 -6.703125 C 1.925781 -6.472656 1.765625 -6.175781 1.765625 -5.8125 C 1.765625 -5.539062 1.851562 -5.316406 2.03125 -5.140625 C 2.21875 -4.972656 2.445312 -4.84375 2.71875 -4.75 C 2.988281 -4.65625 3.351562 -4.554688 3.8125 -4.453125 C 4.40625 -4.304688 4.882812 -4.160156 5.25 -4.015625 C 5.613281 -3.867188 5.925781 -3.648438 6.1875 -3.359375 C 6.445312 -3.066406 6.578125 -2.671875 6.578125 -2.171875 C 6.578125 -1.753906 6.460938 -1.375 6.234375 -1.03125 C 6.015625 -0.6875 5.671875 -0.410156 5.203125 -0.203125 C 4.742188 -0.00390625 4.175781 0.09375 3.5 0.09375 Z M 3.5 0.09375 "/></g></g></g></svg>